# xmcd
#
# Track frame offsets:
#	150
#	13243
#	26069
#	39165
#	53187
#	69077
#	82294
#	96221
#	108924
#	126496
#	141627
#	158095
#	171647
#	184341
#	197599
#	213635
#	228674
#
# Disc length: 3305 seconds
#
# Revision: 1
# Processed by: cddbd v1.5.2PL0 Copyright (c) Steve Scherf et al.
# Submitted via: audiograbber 1.82.02
#
DISCID=000ce711
DTITLE=Various Artist - Country Radio - March 2019
DYEAR=2019
DGENRE=Country
TTITLE0=Eric Dodd - Pretty Girl, Lucky Guy
TTITLE1=Jimmie Allen - Make Me Want To
TTITLE2=Chris Young - Raised On Country
TTITLE3=Mags - Run
TTITLE4=Travis Denning - After A Few
TTITLE5=Ryan Hurd - To A T
TTITLE6=Mitchell Tenpenny - Alcohol You Later
TTITLE7=Dan and Shay - All To Myself
TTITLE8=Stephen Martines - Shot Glasses and Bullet Holes
TTITLE9=Campbell Station - Sweet Tea
TTITLE10=Maren Morris - Girl
TTITLE11=John King - Try Saying Goodbye
TTITLE12=Smithfield - Our World
TTITLE13=Shane Owens - Love To Try Them On
TTITLE14=Cody Jinks - Somewhere Between I Love You and I'm Leaving
TTITLE15=Hardy - Rednecker
TTITLE16=Tony Young - Town That Raised Me
EXTD=
EXTT0=
EXTT1=
EXTT2=
EXTT3=
EXTT4=
EXTT5=
EXTT6=
EXTT7=
EXTT8=
EXTT9=
EXTT10=
EXTT11=
EXTT12=
EXTT13=
EXTT14=
EXTT15=
EXTT16=
PLAYORDER=
